<svg width="16" height="17" viewBox="0 0 16 17" fill="none" xmlns="http://www.w3.org/2000/svg">
<path d="M8.03227 9.76774C10.2978 9.76774 12.1359 7.69043 12.1359 5.13002C12.1359 2.56962 10.2978 0.49231 8.03227 0.49231C5.76671 0.49231 3.92861 2.56962 3.92861 5.13002C3.92861 7.69043 5.76671 9.76774 8.03227 9.76774ZM11.68 10.7983H11.3305C10.5284 10.7983 9.74938 11.0434 8.96555 11.2135C8.66313 11.2791 8.35113 11.3136 8.03227 11.3136C7.71146 11.3136 7.39814 11.2786 7.09437 11.2123C6.31383 11.0417 5.53785 10.7983 4.7389 10.7983H4.38457C2.36979 10.7983 0.736877 12.6438 0.736877 14.9208V15.4361C0.736877 16.2895 1.34958 16.982 2.10476 16.982H13.9598C14.715 16.982 15.3277 16.2895 15.3277 15.4361V14.9208C15.3277 12.6438 13.6948 10.7983 11.68 10.7983Z" fill="black"/>
</svg>
