<svg width="56" height="54" viewBox="0 0 56 54" fill="none" xmlns="http://www.w3.org/2000/svg">
<path d="M27.9213 0.490723C12.9065 0.490723 0.741211 12.2937 0.741211 26.8612C0.741211 41.4288 12.9065 53.2317 27.9213 53.2317C42.9362 53.2317 55.1015 41.4288 55.1015 26.8612C55.1015 12.2937 42.9362 0.490723 27.9213 0.490723ZM27.9213 10.6987C33.2478 10.6987 37.5659 14.8882 37.5659 20.0559C37.5659 25.2237 33.2478 29.4132 27.9213 29.4132C22.5949 29.4132 18.2768 25.2237 18.2768 20.0559C18.2768 14.8882 22.5949 10.6987 27.9213 10.6987ZM27.9213 47.2771C21.488 47.2771 15.7232 44.4487 11.8653 40.0252C13.9258 36.261 17.9589 33.6665 22.6607 33.6665C22.9237 33.6665 23.1867 33.7091 23.4388 33.7835C24.8636 34.2301 26.3541 34.5172 27.9213 34.5172C29.4886 34.5172 30.9901 34.2301 32.4039 33.7835C32.6559 33.7091 32.919 33.6665 33.182 33.6665C37.8837 33.6665 41.9169 36.261 43.9773 40.0252C40.1195 44.4487 34.3547 47.2771 27.9213 47.2771Z" fill="white"/>
</svg>
