<svg width="16" height="12" viewBox="0 0 16 12" fill="none" xmlns="http://www.w3.org/2000/svg">
<path d="M15.3792 5.7278C14.0055 2.67161 11.2859 0.603821 8.17196 0.603821C5.058 0.603821 2.33768 2.67305 0.964726 5.72809C0.906778 5.85879 0.876587 6.00319 0.876587 6.14965C0.876587 6.2961 0.906778 6.4405 0.964726 6.5712C2.33844 9.62739 5.058 11.6952 8.17196 11.6952C11.2859 11.6952 14.0063 9.62595 15.3792 6.57091C15.4371 6.44021 15.4673 6.29581 15.4673 6.14936C15.4673 6.0029 15.4371 5.8585 15.3792 5.7278ZM8.17196 10.3088C7.45052 10.3088 6.74527 10.0648 6.14541 9.6078C5.54555 9.15077 5.07802 8.50119 4.80193 7.74118C4.52585 6.98117 4.45361 6.14489 4.59436 5.33807C4.73511 4.53125 5.08251 3.79014 5.59265 3.20846C6.10279 2.62678 6.75275 2.23065 7.46033 2.07016C8.16792 1.90967 8.90135 1.99204 9.56788 2.30685C10.2344 2.62165 10.8041 3.15475 11.2049 3.83874C11.6057 4.52273 11.8197 5.32688 11.8197 6.1495C11.8199 6.69578 11.7257 7.23675 11.5425 7.7415C11.3592 8.24624 11.0906 8.70486 10.7518 9.09113C10.413 9.47741 10.0108 9.78377 9.56815 9.9927C9.12549 10.2016 8.65105 10.309 8.17196 10.3088ZM8.17196 3.37666C7.84135 3.38193 7.70823 3.76708 7.75252 4.09475C7.7665 4.19816 7.77023 4.30374 7.76321 4.40953C7.74134 4.73911 7.61662 5.04884 7.41165 5.28256C7.20668 5.51627 6.93504 5.65849 6.646 5.68342C6.24586 5.71794 5.73647 5.88513 5.7547 6.28634C5.76745 6.56668 5.81761 6.84487 5.90479 7.11104C6.08236 7.65317 6.40455 8.11815 6.82602 8.44055C7.24749 8.76294 7.74701 8.92652 8.25428 8.90825C8.76155 8.88997 9.25103 8.69077 9.65381 8.33869C10.0566 7.9866 10.3524 7.49936 10.4996 6.94553C10.6468 6.39171 10.638 5.79919 10.4744 5.25138C10.3108 4.70357 10.0007 4.22805 9.58763 3.89175C9.17461 3.55545 8.67949 3.3753 8.17196 3.37666Z" fill="black"/>
</svg>
