<svg width="15" height="18" viewBox="0 0 15 18" fill="none" xmlns="http://www.w3.org/2000/svg">
<path d="M14.9912 6.68737C14.9912 9.84587 12.7456 12.4063 9.97559 12.4063C9.39924 12.4063 8.81496 12.5954 8.46061 13.05L8.35582 13.1844C8.29165 13.2667 8.21292 13.3326 8.12481 13.3777C8.0367 13.4228 7.94121 13.4461 7.84463 13.4461C7.25878 13.4461 6.78386 13.9211 6.78386 14.5069V14.7459C6.78386 15.1766 6.47765 15.5258 6.09992 15.5258C5.47036 15.5258 4.96001 16.0361 4.96001 16.6657V16.8255C4.96001 17.2562 4.6538 17.6054 4.27607 17.6054H1.08433C0.706598 17.6054 0.400391 17.2562 0.400391 16.8255V14.2891C0.400391 14.0822 0.472461 13.8839 0.6007 13.7376L4.01414 9.84546C4.76028 8.99468 4.96001 7.81895 4.96001 6.68734C4.96001 3.52883 7.20554 0.968386 9.97556 0.968353C12.7538 0.968321 14.9912 3.51951 14.9912 6.68737ZM9.97559 5.12761C9.97559 5.98904 10.588 6.68734 11.3435 6.68734C12.099 6.68734 12.7114 5.98904 12.7114 5.12761C12.7114 4.26619 12.099 3.56789 11.3435 3.56789C10.588 3.56789 9.97559 4.26619 9.97559 5.12761Z" fill="black"/>
</svg>
